 
http://desibbrg.org/images/66952052392581364616.gif
 
http://desibbrg.org/images/05480947887358709281.jpg
 
http://desibbrg.org/images/59016913157516884023.jpg
 
http://desibbrg.org/images/39602151767366463366.jpg
 
http://desibbrg.org/images/37230308902187867413.jpg
 
http://desibbrg.org/images/14852374339505690899.jpg


Info - 
Cast: Abhishek Anand, , Urvashi Sharma, Vidya Malvade. Akhilendra Mishra. Darshan Jariwala. Zakir Hussain. Yashpal Sharma. Rajesh Shringapure. Pramod Moutho., Ganesh Yadav. Kamlesh Sawant. Maryam Zakaria. ΓÇó Mrinalini Sharma , Govind Namdev
Director: Shakur Sir 

Media Info - 
General
Complete name                    : Chakradhar-2012-Scam Rip Xvid - Team IcTv Exclusive (1).avi
Format                           : AVI
Format/Info                      : Audio Video Interleave
File size                        : 699 MiB
Duration                         : 1h 51mn
Overall bit rate                 : 874 Kbps

Video
ID                               : 0
Format                           : MPEG-4 Visual
Codec ID                         : XVID
Codec ID/Hint                    : XviD
Duration                         : 1h 51mn
Bit rate                         : 754 Kbps
Width                            : 592 pixels
Height                           : 256 pixels
Display aspect ratio             : 2.35:1
Frame rate                       : 25.000 fps
Color space                      : YUV
Chroma subsampling               : 4:2:0
Compression mode                 : Lossy
Bits/(Pixel*Frame)               : 0.199
Stream size                      : 603 MiB (86%)

Audio
ID                               : 1
Format                           : MPEG Audio
Format version                   : Version 1
Format profile                   : Layer 3
Mode                             : Joint stereo
Mode extension                   : MS Stereo
Codec ID                         : 55
Codec ID/Hint                    : MP3
Duration                         : 1h 51mn
Bit rate mode                    : Variable
Bit rate                         : 112 Kbps
Channel(s)                       : 2 channels
Sampling rate                    : 44.1 KHz
Compression mode                 : Lossy
Stream size                      : 85.6 MiB (12%)
Alignment                        : Aligned on interleaves
Interleave, duration             : 26 ms (0.65 video frame)
Interleave, preload duration     : 148 ms
Title                            : Chakradhar-2012-Yamraaj Tc0 L2 2ch 48 64 DELAY 0ms
Writing library                  : LAME3.99r
Encoding settings                : -m j -V 4 -q 2 -lowpass 15.6 --abr 112


Ripper : Master Mind

Seeding 24x7... Extreme Seeding...


Enjoy!
